<?xml version="1.0" encoding="UTF-8"?>
<!-- Generator: Adobe Illustrator 27.2.0, SVG Export Plug-In . SVG Version: 6.00 Build 0)  -->
<svg xmlns="http://www.w3.org/2000/svg" xmlns:xlink="http://www.w3.org/1999/xlink" version="1.1" id="Layer_1" x="0px" y="0px" viewBox="0 0 276.02 123.11" style="enable-background:new 0 0 276.02 123.11;" xml:space="preserve">
<style type="text/css">
	.st0{fill:#FFFFFF;}
</style>
<g>
	<g>
		<polygon class="st0" points="40.36,54.09 54.34,64.38 49,81.02 62.98,70.74 76.97,81.02 71.62,64.38 85.61,54.09 68.32,54.09     62.98,37.45 57.64,54.09   "></polygon>
		<polygon class="st0" points="69.19,99.33 62.53,104.23 55.88,99.33 58.42,107.25 51.77,112.15 59.99,112.15 62.53,120.07     65.07,112.15 73.3,112.15 66.65,107.25   "></polygon>
		<polygon class="st0" points="42.72,99.11 39.06,91.66 37.69,99.87 29.55,101.09 36.85,104.94 35.48,113.16 41.35,107.33     48.65,111.18 44.99,103.72 50.86,97.89   "></polygon>
		<polygon class="st0" points="27.49,85.29 27.65,76.96 22.69,83.61 14.92,80.88 19.62,87.71 14.66,94.35 22.53,91.94 27.23,98.77     27.39,90.44 35.26,88.02   "></polygon>
		<polygon class="st0" points="25.95,71.97 20.3,65.9 24.25,58.6 16.82,62.16 11.17,56.1 12.22,64.36 4.78,67.92 12.87,69.47     13.92,77.73 17.87,70.42   "></polygon>
		<polygon class="st0" points="11.73,52.85 18.57,48.21 25.02,53.37 22.79,45.35 29.63,40.72 21.41,40.4 19.18,32.38 16.33,40.19     8.11,39.87 14.57,45.02   "></polygon>
		<polygon class="st0" points="29.33,28.85 32.7,36.45 34.39,28.3 42.56,27.39 35.43,23.25 37.11,15.1 31.01,20.69 23.88,16.56     27.25,24.15 21.15,29.75   "></polygon>
		<polygon class="st0" points="47.24,25.05 52.46,18.61 60.12,21.64 55.68,14.62 60.9,8.18 52.94,10.29 48.5,3.28 48.02,11.59     40.06,13.7 47.72,16.73   "></polygon>
		<polygon class="st0" points="65.34,21.75 72.9,18.48 78.31,24.76 77.58,16.46 85.15,13.2 77.13,11.33 76.41,3.04 72.18,10.19     64.16,8.32 69.57,14.6   "></polygon>
		<polygon class="st0" points="82.89,27.31 91.09,27.96 93.01,36.06 96.16,28.36 104.36,29.01 98.1,23.6 101.24,15.9 94.23,20.26     87.98,14.85 89.9,22.95   "></polygon>
		<polygon class="st0" points="95.91,40.45 102.88,44.87 100.88,52.96 107.19,47.61 114.16,52.02 111.08,44.3 117.39,38.95     109.19,39.53 106.11,31.8 104.11,39.88   "></polygon>
		<polygon class="st0" points="113.64,63.61 114.44,55.32 108.98,61.55 101.44,58.21 105.61,65.4 100.15,71.63 108.18,69.84     112.34,77.02 113.14,68.73 121.18,66.94   "></polygon>
		<polygon class="st0" points="111.08,80.07 103.4,83.04 98.23,76.55 98.64,84.87 90.95,87.83 98.9,90.01 99.3,98.33 103.8,91.36     111.74,93.53 106.58,87.05   "></polygon>
		<polygon class="st0" points="88.63,99.47 87.02,91.3 83.58,98.87 75.41,97.89 81.45,103.54 78.01,111.11 85.19,107.04     91.23,112.69 89.62,104.52 96.79,100.44   "></polygon>
	</g>
	<g>
		<g>
			<path class="st0" d="M151.67,109.92l-0.04-0.16l-0.07-0.19l-0.2-0.31l-0.1-0.17l-0.1-0.13l-0.28-0.25l-0.14-0.1l-0.17-0.12     l-0.28-0.21l-0.02-0.07l0.13-0.08l0.17-0.09l0.13-0.12l0.12-0.12l0.12-0.13l0.12-0.14l0.1-0.14l0.17-0.33l0.08-0.15l0.04-0.17     l0.04-0.18v-0.19l0-0.19l-0.02-0.17l-0.03-0.17l-0.04-0.18l-0.06-0.18l-0.09-0.18l-0.15-0.34l-0.11-0.15l-0.11-0.13l-0.15-0.13     l-0.15-0.12l-0.16-0.1l-0.15-0.07l-0.36-0.15l-0.18-0.06l-0.5-0.13l-0.18-0.01l-0.16,0.01h-0.18l-0.19-0.02l-0.2-0.01l-0.19,0.01     l-0.39-0.03h-0.17l-0.17,0.03l-0.15,0.01l-0.37-0.02h-0.19l-0.18-0.01l-0.18,0.01h-0.38l-0.36,0.02l-0.18-0.01h-0.17l-0.17,0.01     l-0.17,0.04l-0.11,0.05l-0.08,0.1l-0.01,0.14v0.17l0.01,0.18l-0.01,0.19l-0.02,0.18v0.55l0.03,0.39v0.16l-0.01,0.18v0.19     l0.01,0.17v0.37l-0.01,0.19l-0.02,0.17l0.03,0.17l0.01,0.18l-0.03,0.18v0.19l0.01,0.17v0.17l0.01,0.18l0.01,0.21v0.18l-0.01,0.18     l-0.01,0.16l-0.01,0.19l0.01,0.19v0.18l0.01,0.18l-0.03,0.34l0.01,0.17v0.16l-0.01,0.19v0.55l0.03,0.39V112l-0.01,0.16v0.37     l0.01,0.15l0.05,0.1l0.12,0.06l0.18,0.04h0.19l0.18-0.01h0.18l0.16,0.02l0.18,0.03h0.53l0.35-0.03h0.21l0.17,0.02l0.16-0.02h0.21     l0.2-0.01h0.1l0.45,0.01l0.17-0.01h0.35l0.16-0.01l0.18-0.03l0.18-0.04l0.18-0.01l0.16-0.03l0.16-0.04l0.16-0.05l0.34-0.15     l0.16-0.07l0.29-0.15l0.16-0.11l0.11-0.14l0.13-0.13l0.12-0.14l0.1-0.16l0.08-0.15l0.04-0.14l0.06-0.15l0.06-0.18l0.02-0.19     v-0.33l-0.02-0.39L151.67,109.92z M145.57,105.78l0.03-0.19v-0.19l-0.03-0.35l0.04-0.17l0.15-0.11l0.16-0.04l0.18-0.01l0.19-0.03     l0.17-0.02l0.17,0.02h0.74l0.17,0.01l0.39,0.03l0.19-0.01l0.2-0.03l0.16-0.02h0.16l0.37,0.05l0.1,0.01l0.21,0.06l0.35,0.13     l0.18,0.1l0.09,0.07l0.17,0.12l0.14,0.12l0.1,0.16l0.08,0.16l0.05,0.17l0.06,0.18l0.02,0.18v0.16l-0.01,0.16l-0.01,0.18     l-0.06,0.17l-0.09,0.17l-0.09,0.16l-0.09,0.14l-0.14,0.13l-0.18,0.09l-0.14,0.09l-0.16,0.09l-0.18,0.04l-0.18,0.05l-0.14,0.04     l-0.16,0.03l-0.18-0.02h-0.19l-0.34,0.02h-0.18l-0.17-0.02h-0.18l-0.19,0.02l-0.18-0.02h-0.16l-0.18,0.03l-0.17,0.01l-0.38,0.02     l-0.35-0.03h-0.17l-0.18-0.04l-0.12-0.13l-0.03-0.18v-0.17l-0.02-0.17l-0.01-0.19v-0.19l0.01-0.2l0.03-0.17l-0.01-0.17     l-0.03-0.17l-0.02-0.15L145.57,105.78z M150.81,110.47l-0.02,0.16l-0.02,0.16l-0.04,0.18l-0.06,0.17l-0.08,0.14l-0.13,0.14     l-0.14,0.14l-0.13,0.09l-0.15,0.06l-0.36,0.12l-0.15,0.07l-0.15,0.05l-0.17,0.03l-0.35,0.02l-0.38,0.05l-0.34-0.03l-0.35,0.02     l-0.18-0.03h-0.19l-0.21,0.03h-0.19l-0.19-0.03h-0.89l-0.16-0.02l-0.1-0.04l-0.07-0.09l-0.03-0.17l-0.01-0.17v-0.17l0.03-0.2     l0.01-0.2v-0.18l-0.01-0.16l-0.02-0.16l0.02-0.2v-0.73l-0.02-0.15l0.02-0.16l0.01-0.19l0.05-0.19l0.12-0.14l0.16-0.03l0.18,0.01     h0.36l0.16-0.02h0.18l0.18,0.02l0.54,0.01l0.17-0.01l0.18,0.01h0.18l0.17-0.01l0.18-0.02h0.3l0.19,0.01l0.17,0.04l0.16,0.05     l0.18,0.03l0.18,0.06l0.16,0.07l0.18,0.06l0.19,0.09l0.13,0.12l0.13,0.12l0.12,0.15l0.11,0.14l0.1,0.14l0.07,0.16l0.04,0.18     l0.01,0.18L150.81,110.47z"></path>
			<path class="st0" d="M164.05,112.5l-0.11-0.14l-0.11-0.14l-0.12-0.12l-0.39-0.44l-0.13-0.12l-0.12-0.14l-0.11-0.13l-0.11-0.13     l-0.26-0.26l-0.12-0.14l-0.11-0.14l-0.12-0.14l-0.13-0.12l-0.13-0.13l-0.12-0.15l-0.11-0.14l-0.14-0.14l-0.08-0.14l0.07-0.13     l0.14-0.04l0.16-0.03l0.17-0.05l0.17-0.04l0.19-0.04l0.18-0.05l0.14-0.09l0.34-0.23l0.13-0.1l0.1-0.11l0.12-0.15l0.1-0.15     l0.11-0.17l0.08-0.14l0.08-0.17l0.08-0.15l0.05-0.18l0.03-0.16l0.03-0.17l0.03-0.2l0.04-0.18v-0.18l-0.01-0.18l-0.03-0.17     l-0.04-0.19l-0.08-0.34l-0.04-0.15l-0.15-0.34l-0.07-0.17l-0.08-0.14l-0.1-0.15l-0.13-0.13l-0.12-0.11l-0.13-0.11l-0.29-0.23     l-0.15-0.12l-0.15-0.08l-0.18-0.07l-0.17-0.05l-0.16-0.04l-0.16-0.05l-0.18-0.03l-0.19,0.01l-0.39-0.02l-0.33-0.01h-0.18     l-0.17,0.01h-0.19l-0.18,0.01l-0.19-0.02l-0.17-0.01l-0.35,0.01l-0.18,0.01h-0.19l-0.18-0.01h-0.19l-0.18,0.01l-0.77-0.03h-0.19     l-0.17,0.04l-0.09,0.08l-0.03,0.12l-0.03,0.15v0.18l-0.03,0.18l0.01,0.18v0.2l-0.01,0.17l0.01,0.17l-0.01,0.2v0.33l0.01,0.18     l-0.01,0.18v0.19l0.01,0.21v1.06l0.02,0.18v0.19l-0.03,0.36l0.01,0.17v0.16l-0.01,0.18l0.03,0.38l-0.02,0.18l-0.01,0.19v0.19     l0.01,0.18l-0.01,0.18v0.17l0.03,0.17v0.18l-0.02,0.18l0.02,0.18l0.01,0.19v0.2l-0.01,0.19l-0.02,0.17V112l0.02,0.19l0.01,0.21     v0.11l0.02,0.19l0.11,0.12l0.17,0.04l0.18,0.02l0.18-0.04l0.13-0.16l0.03-0.18l0.01-0.17v-0.17l0.01-0.18v-0.18l-0.02-0.39     l0.01-0.18v-0.18l-0.01-0.19l0.01-0.19l0.03-0.17v-0.55l0.04-0.21l0.12-0.14l0.18-0.04h0.19l0.17-0.02h0.36l0.15,0.02l0.18,0.02     h0.31l0.19-0.01l0.18,0.01l0.18,0.06l0.16,0.07l0.11,0.11l0.1,0.13l0.23,0.28l0.24,0.25l0.11,0.15l0.13,0.14l0.23,0.25l0.11,0.13     l0.11,0.15l0.12,0.14l0.13,0.12l0.12,0.11l0.12,0.13l0.11,0.15l0.13,0.14l0.1,0.12l0.35,0.42l0.16,0.13l0.13,0.05l0.16,0.04     l0.18,0.03h0.29l0.17-0.02l0.13-0.04l0.02-0.11l-0.09-0.11L164.05,112.5z M160.89,108.71l-0.38-0.01h-0.17l-0.19,0.01l-0.16,0.01     h-0.19l-0.19-0.01l-0.18,0.01h-0.54l-0.53,0.01l-0.18-0.04l-0.11-0.07l-0.06-0.12l-0.03-0.17v-0.16l0.01-0.17l0.02-0.18v-0.57     l-0.02-0.2v-0.89l-0.01-0.17v-0.18l0.01-0.18v-0.2l0.02-0.19v-0.17l0.03-0.17l0.14-0.15l0.18-0.05l0.16,0.01l0.18-0.01h0.18     l0.41,0.01l0.18-0.03h0.17l0.18,0.01h0.21l0.32-0.01h0.4l0.22-0.02h0.15l0.17,0.03l0.2,0.03l0.17,0.02l0.51,0.16l0.15,0.09     l0.16,0.12l0.13,0.13l0.11,0.13l0.12,0.14l0.1,0.14l0.13,0.33l0.05,0.16l0.03,0.18l0.02,0.22l0.01,0.18l0.01,0.15l-0.01,0.18     l-0.04,0.17l-0.05,0.19l-0.07,0.18l-0.11,0.16l-0.08,0.15l-0.12,0.14l-0.26,0.24l-0.14,0.13l-0.14,0.09l-0.16,0.07l-0.2,0.05     l-0.2,0.02l-0.18,0.02L160.89,108.71z"></path>
			<polygon class="st0" points="175.96,112.24 175.89,112.14 175.78,112.08 175.64,112.05 175.26,112.05 174.89,112.02      174.73,112.04 174.55,112.05 173.65,112.05 173.47,112.02 173.3,112.02 173.16,112.04 172.79,112.04 172.45,112.07      172.06,112.04 171.54,112.02 171.36,112.02 170.99,112.05 170.84,112.05 170.68,112.02 170.56,111.97 170.5,111.87      170.48,111.69 170.49,111.48 170.49,111.33 170.48,111.17 170.47,110.98 170.48,110.79 170.49,110.61 170.49,110.42      170.48,110.23 170.45,110.04 170.45,109.86 170.47,109.68 170.47,109.13 170.5,108.99 170.57,108.88 170.7,108.81 170.86,108.79      171.37,108.79 171.54,108.8 171.7,108.77 171.88,108.77 172.07,108.79 172.26,108.81 172.58,108.81 172.95,108.77 173.12,108.77      173.32,108.8 173.7,108.8 173.8,108.79 174.19,108.77 174.38,108.77 174.55,108.8 174.9,108.77 175.09,108.77 175.27,108.79      175.43,108.76 175.57,108.64 175.64,108.46 175.64,108.28 175.57,108.13 175.46,107.99 175.29,107.96 175.11,107.95      174.92,107.95 174.73,107.96 174.17,107.92 173.84,107.92 173.32,107.95 172.95,107.97 172.6,107.95 172.41,107.95      172.08,107.93 171.72,107.93 171.52,107.96 171.37,107.96 171.2,107.95 170.84,107.97 170.65,107.93 170.52,107.79 170.5,107.61      170.49,107.43 170.49,107.04 170.48,106.89 170.48,105.82 170.45,105.43 170.45,105.21 170.47,105.1 170.5,104.9 170.56,104.78      170.68,104.72 170.86,104.68 170.96,104.68 171.36,104.71 171.57,104.71 171.75,104.69 171.9,104.71 172.08,104.72      172.26,104.69 172.43,104.68 172.63,104.69 173.16,104.71 173.34,104.72 173.89,104.72 174.21,104.73 174.41,104.73      174.6,104.71 174.81,104.71 174.92,104.72 175.14,104.72 175.33,104.71 175.51,104.73 175.69,104.69 175.79,104.62      175.86,104.51 175.87,104.36 175.84,104.2 175.82,104.06 175.75,103.97 175.65,103.92 175.48,103.87 175.31,103.85      174.23,103.85 174.09,103.87 173.54,103.87 173.18,103.84 173,103.85 172.82,103.84 172.62,103.84 172.41,103.85 172.3,103.87      172.1,103.87 171.76,103.84 171.39,103.84 171.2,103.85 171.01,103.88 170.84,103.88 170.48,103.85 169.92,103.85 169.73,103.89      169.6,104.02 169.57,104.2 169.57,104.4 169.56,104.6 169.54,104.76 169.54,104.93 169.56,105.12 169.56,105.67 169.58,105.86      169.6,106.04 169.6,106.22 169.57,106.55 169.58,106.75 169.58,107.09 169.6,107.28 169.58,107.47 169.58,107.65 169.6,107.83      169.6,108.02 169.58,108.22 169.58,108.4 169.56,108.57 169.56,108.73 169.58,108.9 169.6,109.07 169.57,109.25 169.56,109.46      169.57,109.66 169.6,109.86 169.58,110.03 169.56,110.19 169.57,110.37 169.6,110.55 169.6,110.89 169.57,111.07 169.58,111.26      169.6,111.43 169.6,111.6 169.58,111.79 169.58,112.36 169.6,112.72 169.65,112.83 169.77,112.89 169.94,112.9 170.34,112.92      170.44,112.9 170.65,112.9 170.99,112.93 171.14,112.92 171.33,112.89 171.51,112.89 171.69,112.9 171.86,112.9 172.06,112.89      172.43,112.88 172.6,112.89 172.95,112.89 173.17,112.9 173.71,112.92 173.83,112.92 174.2,112.93 174.38,112.92 174.54,112.92      174.73,112.89 174.9,112.89 175.11,112.9 175.27,112.89 175.43,112.89 175.61,112.9 175.79,112.85 175.95,112.73 176.01,112.58      176,112.41    "></polygon>
			<polygon class="st0" points="193.33,103.92 193.19,103.85 193.03,103.84 192.86,103.84 192.69,103.88 192.57,103.96      192.48,104.07 192.39,104.23 192.33,104.4 192.28,104.57 192.23,104.71 192.18,104.86 192.12,105.04 192.07,105.24      192.02,105.42 191.96,105.54 191.91,105.71 191.85,105.91 191.76,106.09 191.71,106.26 191.66,106.44 191.63,106.59      191.57,106.73 191.49,106.9 191.43,107.08 191.37,107.28 191.31,107.46 191.27,107.62 191.24,107.77 191.16,107.93      191.09,108.13 191.03,108.29 190.93,108.61 190.88,108.8 190.81,108.95 190.76,109.12 190.7,109.3 190.65,109.46 190.59,109.65      190.53,109.83 190.47,110 190.41,110.14 190.34,110.3 190.28,110.47 190.22,110.66 190.19,110.84 190.14,111.01 190.07,111.17      190,111.35 189.92,111.48 189.86,111.48 189.81,111.37 189.74,111.2 189.69,111.01 189.61,110.83 189.56,110.66 189.52,110.5      189.45,110.32 189.37,110.14 189.25,109.64 189.18,109.47 189.1,109.29 189.05,109.11 189.01,108.97 188.95,108.8 188.89,108.61      188.81,108.44 188.68,108.1 188.64,107.96 188.56,107.62 188.5,107.46 188.46,107.26 188.4,107.09 188.33,106.91 188.26,106.75      188.2,106.57 188.17,106.38 188.09,106.19 188.03,106.09 187.97,105.92 187.95,105.76 187.87,105.58 187.79,105.42      187.73,105.24 187.68,105.04 187.61,104.87 187.58,104.71 187.53,104.55 187.46,104.38 187.39,104.2 187.31,104.04      187.21,103.93 187.08,103.87 186.91,103.88 186.78,103.96 186.7,104.06 186.63,104.19 186.58,104.36 186.52,104.55      186.44,104.71 186.39,104.87 186.36,105.05 186.23,105.42 186.18,105.58 186.1,105.73 186.06,105.88 186.01,106.05      185.94,106.23 185.89,106.41 185.85,106.58 185.79,106.75 185.71,106.9 185.66,107.08 185.64,107.26 185.57,107.43 185.5,107.61      185.43,107.79 185.33,108.13 185.27,108.28 185.21,108.42 185.15,108.61 185.1,108.8 185.03,108.95 184.99,109.11 184.94,109.29      184.87,109.48 184.81,109.65 184.76,109.81 184.71,109.97 184.58,110.31 184.53,110.48 184.43,110.84 184.35,111.01      184.28,111.19 184.22,111.35 184.17,111.48 184.1,111.48 184.02,111.34 183.97,111.15 183.92,110.98 183.84,110.81      183.79,110.66 183.75,110.49 183.69,110.32 183.64,110.14 183.58,109.99 183.51,109.82 183.44,109.64 183.38,109.47      183.33,109.3 183.27,109.13 183.21,108.97 183.15,108.8 183.11,108.62 183.06,108.44 183.01,108.27 182.93,108.1 182.88,107.95      182.84,107.78 182.78,107.61 182.74,107.44 182.69,107.29 182.63,107.11 182.55,106.91 182.48,106.75 182.42,106.58      182.38,106.42 182.31,106.24 182.26,106.08 182.23,105.89 182.18,105.7 182.09,105.54 182.03,105.4 181.97,105.24 181.94,105.05      181.89,104.87 181.83,104.69 181.77,104.54 181.72,104.37 181.64,104.21 181.55,104.05 181.47,103.95 181.36,103.88      181.2,103.87 180.87,103.87 180.71,103.91 180.64,104.02 180.67,104.18 180.73,104.34 180.76,104.51 180.81,104.69      180.88,104.87 180.95,105.07 181,105.25 181.06,105.42 181.15,105.58 181.21,105.75 181.26,105.89 181.3,106.06 181.36,106.24      181.48,106.6 181.53,106.77 181.68,107.11 181.74,107.28 181.77,107.46 181.82,107.62 181.89,107.78 181.95,107.97 182,108.14      182.06,108.28 182.13,108.44 182.18,108.57 182.22,108.67 182.27,108.83 182.31,108.99 182.36,109.16 182.41,109.34      182.54,109.68 182.6,109.86 182.68,110.03 182.74,110.19 182.79,110.36 182.84,110.52 182.92,110.7 182.99,110.86 183.02,111.03      183.07,111.2 183.15,111.38 183.28,111.72 183.33,111.88 183.41,112.07 183.47,112.23 183.51,112.39 183.56,112.57      183.67,112.75 183.86,112.88 184.06,112.92 184.24,112.92 184.42,112.89 184.55,112.83 184.64,112.72 184.73,112.57 184.8,112.4      184.84,112.23 184.9,112.09 184.95,111.92 185.02,111.72 185.05,111.6 185.13,111.4 185.2,111.25 185.27,111.08 185.39,110.72      185.43,110.55 185.47,110.4 185.56,110.23 185.61,110.05 185.66,109.86 185.78,109.51 185.83,109.37 185.91,109.17      185.95,109.03 185.99,108.89 186.12,108.53 186.18,108.33 186.25,108.15 186.32,107.84 186.42,107.48 186.48,107.31      186.54,107.16 186.59,107.01 186.66,106.82 186.72,106.63 186.78,106.45 186.81,106.3 186.86,106.11 186.93,105.93      186.97,105.81 187.06,105.82 187.13,105.97 187.23,106.28 187.28,106.46 187.32,106.63 187.38,106.81 187.46,106.99      187.53,107.17 187.58,107.33 187.64,107.47 187.68,107.63 187.76,107.99 187.84,108.16 187.91,108.33 187.96,108.53      188.02,108.69 188.07,108.89 188.1,109.03 188.15,109.17 188.21,109.34 188.26,109.53 188.34,109.7 188.4,109.87 188.46,110.05      188.49,110.23 188.56,110.39 188.62,110.55 188.7,110.72 188.75,110.89 188.8,111.04 188.85,111.23 188.92,111.4 188.98,111.57      189.03,111.73 189.08,111.9 189.13,112.08 189.19,112.27 189.27,112.43 189.34,112.58 189.4,112.72 189.48,112.83 189.61,112.89      189.98,112.92 190.15,112.9 190.28,112.84 190.38,112.72 190.47,112.56 190.57,112.24 190.63,112.07 190.69,111.87      190.76,111.69 190.83,111.55 190.9,111.39 190.97,111.23 191.06,110.86 191.14,110.67 191.19,110.55 191.27,110.36      191.33,110.17 191.37,109.99 191.41,109.83 191.48,109.68 191.55,109.5 191.61,109.32 191.66,109.16 191.72,109.01      191.78,108.83 191.82,108.63 191.9,108.45 191.96,108.29 192.01,108.14 192.07,107.96 192.14,107.79 192.2,107.65 192.26,107.47      192.33,107.3 192.39,107.12 192.49,106.76 192.61,106.42 192.68,106.26 192.74,106.09 192.82,105.93 192.88,105.76      192.93,105.58 192.98,105.39 193.03,105.22 193.09,105.05 193.16,104.9 193.21,104.74 193.27,104.57 193.33,104.37 193.4,104.18      193.39,104.02    "></polygon>
			<polygon class="st0" points="199.48,109.45 199.46,109.24 199.46,109.15 199.48,108.94 199.48,108.4 199.46,108.21      199.46,108.01 199.48,107.83 199.5,107.66 199.48,107.48 199.48,107.29 199.48,107.12 199.48,106.94 199.46,106.76      199.46,106.57 199.48,106.38 199.5,106.19 199.48,106.01 199.46,105.84 199.46,105.46 199.48,105.29 199.48,104.73      199.48,104.57 199.5,104.41 199.48,104.24 199.46,104.07 199.41,103.95 199.3,103.88 199.12,103.85 198.94,103.85 198.78,103.88      198.67,103.95 198.62,104.06 198.6,104.23 198.6,104.95 198.58,105.15 198.61,105.51 198.6,105.7 198.58,105.82 198.58,106.22      198.6,106.38 198.6,106.55 198.58,106.72 198.6,106.91 198.6,107.11 198.58,107.29 198.58,107.46 198.61,107.65 198.61,107.84      198.58,108.04 198.6,108.22 198.6,108.93 198.58,109.12 198.62,109.46 198.58,109.82 198.58,110.18 198.57,110.36 198.58,110.54      198.6,110.73 198.6,110.92 198.61,111.08 198.61,111.28 198.58,111.61 198.6,111.78 198.61,111.97 198.58,112.17 198.58,112.35      198.6,112.54 198.62,112.72 198.69,112.83 198.79,112.89 198.94,112.92 199.12,112.92 199.31,112.88 199.45,112.73 199.5,112.54      199.48,112.18 199.48,111.97 199.5,111.81 199.5,111.48 199.48,111.3 199.46,111.11 199.46,110.9 199.48,110.71 199.48,110.36      199.48,110.2 199.5,110.04 199.51,109.84 199.5,109.65    "></polygon>
			<polygon class="st0" points="212.59,106.4 212.59,105.13 212.55,104.94 212.55,104.77 212.6,104.59 212.6,104.41 212.59,104.23      212.53,104.05 212.42,103.92 212.26,103.88 212.06,103.88 211.86,103.91 211.72,104.02 211.66,104.2 211.69,104.59      211.72,104.77 211.69,105.11 211.68,105.3 211.66,105.48 211.7,105.84 211.7,106.22 211.69,106.4 211.69,106.58 211.7,106.77      211.7,106.94 211.69,107.09 211.69,107.65 211.68,107.83 211.69,108.04 211.7,108.21 211.7,108.93 211.69,109.08 211.68,109.25      211.68,109.43 211.7,109.61 211.7,109.95 211.72,110.11 211.73,110.3 211.74,110.47 211.74,110.84 211.7,110.98 211.63,110.99      211.51,110.92 211.38,110.77 211.3,110.63 211.19,110.48 211.07,110.35 210.95,110.2 210.85,110.07 210.73,109.93 210.63,109.81      210.28,109.38 210.09,109.07 209.97,108.93 209.84,108.81 209.74,108.68 209.63,108.53 209.51,108.39 209.4,108.23 209.3,108.07      209.18,107.93 209.08,107.79 208.96,107.65 208.85,107.52 208.72,107.38 208.52,107.09 208.43,106.95 208.31,106.81      208.18,106.67 208.07,106.51 207.95,106.38 207.84,106.24 207.71,106.1 207.61,105.96 207.5,105.82 207.39,105.67 207.3,105.53      207.07,105.25 206.93,105.12 206.73,104.84 206.5,104.58 206.33,104.29 206.21,104.15 206.07,104.04 205.92,103.93      205.75,103.87 205.59,103.91 205.49,103.96 205.42,104.06 205.39,104.4 205.39,104.57 205.41,104.74 205.38,105.11      205.38,105.51 205.41,105.7 205.43,106.04 205.41,106.2 205.39,106.37 205.39,106.57 205.41,106.77 205.38,107.13 205.36,107.28      205.38,107.44 205.39,107.66 205.41,107.86 205.42,108.01 205.41,108.18 205.39,108.37 205.41,108.57 205.41,108.94      205.42,109.11 205.41,109.29 205.41,109.47 205.42,109.65 205.42,109.81 205.41,109.97 205.39,110.17 205.39,110.35      205.41,110.54 205.43,110.72 205.42,110.9 205.39,111.09 205.38,111.28 205.41,111.61 205.39,111.81 205.39,111.99      205.42,112.37 205.42,112.56 205.45,112.72 205.57,112.85 205.75,112.9 205.93,112.88 206.11,112.84 206.25,112.72 206.3,112.53      206.3,111.99 206.31,111.79 206.31,111.08 206.29,110.7 206.3,110.52 206.3,110.13 206.31,109.96 206.33,109.78 206.33,109.6      206.31,109.43 206.29,109.24 206.29,109.02 206.3,108.84 206.31,108.67 206.31,108.5 206.3,108.31 206.3,108.13 206.29,107.95      206.3,107.75 206.29,107.57 206.27,107.4 206.27,107.25 206.29,107.08 206.29,106.87 206.3,106.68 206.29,106.5 206.27,106.33      206.29,106.16 206.29,105.98 206.3,105.84 206.37,105.82 206.49,105.92 206.61,106.08 206.72,106.2 206.83,106.32 206.93,106.45      207.05,106.6 207.17,106.77 207.27,106.9 207.37,107.04 207.62,107.31 207.74,107.47 207.81,107.56 207.91,107.73 208.03,107.87      208.13,108.02 208.26,108.16 208.37,108.29 208.48,108.42 208.59,108.57 208.72,108.69 208.83,108.84 208.95,108.99      209.05,109.12 209.14,109.26 209.25,109.41 209.5,109.69 209.59,109.84 209.69,109.99 209.8,110.13 209.91,110.24 210.03,110.37      210.15,110.54 210.26,110.68 210.36,110.81 210.49,110.94 210.59,111.08 210.71,111.21 210.84,111.37 210.95,111.51      211.04,111.64 211.14,111.78 211.24,111.9 211.5,112.18 211.63,112.31 211.73,112.46 211.84,112.62 211.97,112.72 212.07,112.8      212.21,112.84 212.4,112.84 212.53,112.72 212.59,112.56 212.58,112.37 212.58,112.19 212.59,112 212.58,111.81 212.55,111.64      212.58,111.47 212.59,111.29 212.59,110.71 212.58,110.53 212.55,110.33 212.55,109.62 212.58,109.43 212.58,109.26      212.55,109.11 212.58,108.93 212.55,108.72 212.55,108.54 212.58,108.39 212.59,108.22 212.58,108.04 212.6,107.65 212.6,107.47      212.59,107.3 212.61,106.91 212.61,106.72 212.6,106.55    "></polygon>
			<polygon class="st0" points="225.96,108.98 225.99,108.8 225.99,108.62 225.98,108.42 225.95,108.24 225.89,108.13 225.8,108.07      225.64,108.06 225.45,108.05 225.26,108.02 225.08,108.02 224.91,108.05 224.74,108.05 224.37,108.02 224,108.02 223.8,108.04      223.49,108.05 223.3,108.05 223.1,108.04 222.76,108.05 222.57,108.02 222.4,108.05 222.3,108.13 222.24,108.24 222.19,108.4      222.2,108.55 222.25,108.68 222.33,108.76 222.43,108.83 222.57,108.86 222.75,108.85 223.13,108.88 223.5,108.89 223.67,108.9      224.04,108.86 224.39,108.89 224.74,108.89 224.91,108.94 225.07,109.07 225.13,109.25 225.12,109.43 225.13,109.57      225.15,109.75 225.15,109.93 225.12,110.11 225.12,110.3 225.15,110.66 225.13,110.83 225.11,111.02 225.06,111.15      224.97,111.25 224.84,111.38 224.71,111.5 224.57,111.59 224.41,111.66 224.1,111.86 223.93,111.91 223.75,111.96 223.6,112.01      223.45,112.05 223.28,112.09 223.09,112.11 222.74,112.11 222.58,112.13 222.19,112.13 221.98,112.1 221.88,112.1 221.68,112.08      221.49,112.02 221.31,111.97 221.14,111.94 220.97,111.87 220.65,111.69 220.49,111.6 220.32,111.5 220.04,111.32 219.93,111.21      219.81,111.07 219.7,110.95 219.59,110.83 219.51,110.72 219.43,110.63 219.36,110.5 219.3,110.35 219.21,110.19 219.12,110.01      219.04,109.83 218.97,109.5 218.91,109.32 218.88,109.12 218.88,108.95 218.83,108.77 218.83,108.39 218.85,108.23      218.86,108.05 218.88,107.87 218.91,107.7 218.93,107.55 218.97,107.37 219.01,107.18 219.05,107.02 219.1,106.86 219.16,106.68      219.26,106.53 219.33,106.36 219.43,106.2 219.53,106.05 219.66,105.89 219.74,105.82 219.87,105.66 219.98,105.52      220.12,105.38 220.35,105.2 220.53,105.1 220.71,105 220.87,104.94 221.02,104.87 221.17,104.8 221.5,104.69 221.67,104.63      221.85,104.59 222.22,104.58 222.42,104.57 222.92,104.58 223.12,104.59 223.46,104.64 223.63,104.71 223.8,104.76 223.97,104.8      224.14,104.86 224.28,104.93 224.41,105.02 224.57,105.11 224.75,105.19 224.9,105.27 225.02,105.38 225.19,105.46      225.33,105.49 225.45,105.46 225.6,105.34 225.7,105.19 225.73,105.05 225.7,104.94 225.58,104.8 225.45,104.68 225.31,104.57      225.16,104.47 225,104.4 224.82,104.31 224.65,104.23 224.5,104.14 224.35,104.06 224.02,103.93 223.83,103.88 223.46,103.79      223.28,103.76 223.09,103.72 222.9,103.71 222.74,103.71 222.56,103.7 222.38,103.7 222.2,103.72 221.98,103.76 221.82,103.79      221.65,103.8 221.46,103.81 221.29,103.84 221.1,103.88 220.92,103.95 220.77,104.01 220.62,104.05 220.45,104.11 220.3,104.21      220.14,104.31 219.99,104.38 219.84,104.49 219.67,104.59 219.53,104.69 219.38,104.81 219.28,104.96 219.15,105.08      219.04,105.2 218.94,105.35 218.82,105.49 218.72,105.65 218.61,105.82 218.51,105.96 218.43,106.11 218.35,106.28      218.16,106.82 218.12,107.01 218.09,107.18 218.03,107.35 217.99,107.51 217.98,107.69 217.98,107.88 217.97,108.05      217.97,108.24 217.95,108.44 217.95,108.81 217.97,108.99 217.99,109.16 218.03,109.34 218.06,109.52 218.13,109.86      218.29,110.36 218.36,110.52 218.46,110.68 218.54,110.84 218.61,110.98 218.7,111.15 218.8,111.3 218.93,111.47 219.04,111.6      219.14,111.69 219.28,111.81 219.41,111.95 219.53,112.08 219.66,112.18 219.99,112.37 220.14,112.48 220.3,112.56      220.45,112.62 220.65,112.7 221.14,112.86 221.47,112.93 221.65,112.98 221.85,113.01 222.02,113.02 222.9,113.02 223.27,113      223.45,112.97 223.64,112.93 223.83,112.88 224,112.83 224.16,112.76 224.35,112.7 224.53,112.62 224.67,112.54 224.82,112.45      225,112.35 225.15,112.23 225.41,112.02 225.59,111.91 225.73,111.78 225.83,111.64 225.91,111.51 225.96,111.37 225.99,111.17      225.99,110.98 225.98,110.8 225.99,110.62 225.99,110.08 225.99,109.91 225.99,109.34 225.96,109.16    "></polygon>
			<polygon class="st0" points="245.25,111.32 245.14,111.23 245,111.19 244.87,111.21 244.73,111.3 244.59,111.42 244.45,111.52      244.32,111.61 244.16,111.7 243.97,111.79 243.87,111.83 243.69,111.92 243.51,112 243.37,112.05 243.2,112.1 243,112.14      242.83,112.16 242.67,112.18 242.46,112.21 242.31,112.22 242.16,112.22 241.78,112.19 241.43,112.14 241.26,112.1 240.9,111.97      240.72,111.92 240.54,111.87 240.37,111.79 240.21,111.69 240.08,111.59 239.78,111.35 239.63,111.23 239.54,111.09      239.4,110.98 239.29,110.84 239.09,110.52 239,110.36 238.93,110.22 238.87,110.04 238.82,109.86 238.75,109.69 238.72,109.51      238.68,109.34 238.64,109.15 238.62,108.95 238.56,108.62 238.56,108.44 238.59,108.24 238.6,108.06 238.62,107.87 238.64,107.7      238.66,107.55 238.69,107.35 238.73,107.16 238.8,107.02 238.87,106.86 238.93,106.71 239,106.53 239.08,106.36 239.18,106.23      239.27,106.1 239.35,105.95 239.48,105.79 239.56,105.7 239.84,105.39 239.99,105.26 240.15,105.16 240.29,105.07 240.45,104.99      240.62,104.93 240.92,104.78 241.09,104.73 241.58,104.62 241.98,104.57 242.19,104.55 242.49,104.58 242.68,104.57      243.02,104.59 243.38,104.72 243.57,104.77 243.75,104.81 243.91,104.89 244.07,104.98 244.23,105.07 244.38,105.16      244.63,105.39 244.8,105.48 244.94,105.51 245.06,105.48 245.21,105.38 245.3,105.25 245.35,105.12 245.33,105 245.24,104.85      245.1,104.71 244.95,104.6 244.82,104.49 244.68,104.37 244.53,104.28 243.87,104.01 243.72,103.96 243.53,103.91 243.38,103.85      243.22,103.81 243.02,103.79 242.83,103.78 242.68,103.75 242.52,103.72 242.33,103.71 242.13,103.72 241.76,103.78      241.42,103.79 241.26,103.83 240.87,103.93 240.7,103.98 240.54,104.01 240.35,104.07 240.17,104.14 240.02,104.21      239.88,104.32 239.72,104.42 239.58,104.5 239.45,104.59 239.27,104.71 239.14,104.84 239.01,104.96 238.9,105.1 238.77,105.22      238.66,105.35 238.56,105.49 238.46,105.66 238.27,105.96 238.18,106.13 238.12,106.31 238.05,106.47 237.97,106.64      237.89,106.82 237.85,106.99 237.81,107.17 237.77,107.37 237.73,107.55 237.7,107.71 237.7,107.9 237.7,108.07 237.68,108.28      237.68,108.58 237.7,108.77 237.7,108.97 237.7,109.16 237.73,109.34 237.77,109.52 237.8,109.69 237.84,109.87 237.89,110.04      238.02,110.37 238.09,110.53 238.27,110.84 238.34,111.01 238.45,111.16 238.56,111.32 238.66,111.46 238.77,111.61      238.88,111.74 239,111.86 239.15,111.99 239.29,112.1 239.45,112.21 239.54,112.27 239.71,112.39 239.88,112.49 240.07,112.57      240.18,112.61 240.38,112.68 240.75,112.81 240.9,112.86 241.09,112.93 241.28,112.97 241.38,112.97 241.58,112.98 241.97,113      242.16,113.01 242.46,113.03 242.67,113.02 243.02,113.01 243.2,112.98 243.4,112.92 243.75,112.84 243.91,112.78 244.1,112.7      244.2,112.64 244.39,112.54 244.56,112.43 244.86,112.24 245.14,112.04 245.31,111.94 245.43,111.77 245.45,111.59      245.36,111.45    "></polygon>
			<path class="st0" d="M258.96,107.88l-0.03-0.17l-0.02-0.2l-0.02-0.18l-0.04-0.16l-0.05-0.16l-0.05-0.18l-0.08-0.16l-0.07-0.18     l-0.06-0.17l-0.07-0.15l-0.08-0.17l-0.06-0.17l-0.08-0.15l-0.1-0.14l-0.1-0.14l-0.23-0.31l-0.25-0.22l-0.11-0.12l-0.15-0.1     l-0.16-0.12l-0.15-0.1l-0.15-0.11l-0.3-0.15l-0.17-0.06l-0.14-0.07l-0.16-0.07l-0.2-0.05l-0.17-0.06l-0.18-0.05l-0.18-0.04h-0.18     l-0.18-0.01l-0.17-0.02h-0.21l-0.32,0.02l-0.36,0.03h-0.38l-0.18,0.04l-0.18,0.03l-0.16,0.04l-0.33,0.16l-0.15,0.07l-0.15,0.04     l-0.17,0.06l-0.18,0.08l-0.16,0.11l-0.15,0.13l-0.1,0.1l-0.13,0.09l-0.14,0.12l-0.14,0.14l-0.12,0.14l-0.12,0.11l-0.1,0.12     l-0.09,0.14l-0.1,0.16l-0.11,0.15l-0.18,0.34l-0.08,0.17l-0.13,0.36l-0.08,0.33l-0.04,0.16l-0.05,0.19l-0.03,0.18l-0.02,0.17     l-0.01,0.18l-0.03,0.17l-0.03,0.18l-0.02,0.16v0.17l0.02,0.21l0.01,0.19l0.02,0.17l0.05,0.15l0.05,0.18l0.04,0.2l0.08,0.33     l0.05,0.17l0.06,0.16l0.08,0.18l0.07,0.16l0.07,0.16l0.09,0.17l0.18,0.28l0.1,0.14l0.11,0.16l0.12,0.14l0.11,0.13l0.14,0.11     l0.13,0.13l0.14,0.13l0.14,0.1l0.16,0.09l0.16,0.07l0.16,0.08l0.14,0.08l0.18,0.08l0.17,0.06l0.31,0.13l0.39,0.08l0.15,0.03     l0.38,0.05h0.18l0.1-0.02h0.6l0.34-0.01l0.18-0.02l0.17-0.04l0.16-0.05l0.17-0.03l0.36-0.13l0.16-0.06l0.29-0.14l0.15-0.07     l0.15-0.07l0.16-0.09l0.14-0.13l0.14-0.1l0.29-0.24l0.13-0.12l0.11-0.15l0.09-0.15l0.11-0.13l0.08-0.15l0.12-0.17l0.09-0.15     l0.08-0.14l0.05-0.16l0.13-0.34l0.07-0.15l0.08-0.19l0.06-0.19l0.03-0.18l0.02-0.15l0.02-0.16l0.01-0.2l0.03-0.18l0.01-0.19     v-0.31l-0.01-0.19L258.96,107.88z M258.08,108.55v0.2l-0.02,0.17l-0.04,0.19l-0.01,0.18l-0.1,0.35l-0.05,0.18l-0.07,0.15     l-0.24,0.52l-0.08,0.14l-0.1,0.13l-0.09,0.14l-0.1,0.16l-0.25,0.26l-0.15,0.12l-0.29,0.23l-0.14,0.09l-0.15,0.08l-0.15,0.06     l-0.16,0.06l-0.19,0.05l-0.32,0.1l-0.35,0.05l-0.19,0.01h-0.38l-0.18,0.01h-0.17l-0.17-0.04l-0.2-0.03l-0.17-0.03l-0.16-0.05     l-0.17-0.04l-0.17-0.05l-0.16-0.06l-0.17-0.07l-0.15-0.08l-0.31-0.18l-0.15-0.13l-0.08-0.09l-0.15-0.14l-0.26-0.29l-0.1-0.14     l-0.09-0.14l-0.07-0.14l-0.09-0.16l-0.07-0.17l-0.06-0.18l-0.13-0.34l-0.05-0.18l-0.04-0.18l-0.02-0.18l-0.02-0.17l-0.03-0.18     l-0.03-0.2l0.02-0.16l0.01-0.14v-0.4l0.03-0.19l0.04-0.18l0.04-0.15l0.04-0.17l0.1-0.36l0.13-0.36l0.08-0.16l0.09-0.13l0.13-0.16     l0.11-0.17l0.1-0.11l0.11-0.12l0.11-0.14l0.28-0.26l0.14-0.09l0.17-0.09l0.18-0.08l0.14-0.07l0.15-0.05l0.34-0.1l0.18-0.06     l0.19-0.04l0.38-0.02l0.18-0.01h0.73l0.16,0.03l0.19,0.02l0.19,0.05l0.33,0.13l0.16,0.05l0.31,0.18l0.17,0.1l0.14,0.09l0.26,0.21     l0.15,0.14l0.11,0.14l0.09,0.14l0.11,0.16l0.11,0.16l0.11,0.13l0.08,0.15l0.06,0.17l0.08,0.18l0.05,0.16l0.03,0.18l0.06,0.16     l0.06,0.2l0.01,0.19l0.02,0.18l0.02,0.16l0.02,0.19l0.02,0.16L258.08,108.55z"></path>
			<polygon class="st0" points="264.87,112.07 264.74,111.94 264.59,111.84 264.45,111.81 264.29,111.81 264.11,111.86      263.97,111.96 263.85,112.09 263.77,112.26 263.77,112.43 263.77,112.59 263.84,112.73 263.95,112.85 264.09,112.93      264.26,112.97 264.42,112.98 264.56,112.94 264.7,112.85 264.83,112.72 264.91,112.58 264.94,112.41 264.92,112.22    "></polygon>
		</g>
		<g>
			<g>
				<g>
					<path class="st0" d="M151.78,71.97c-2.67-0.57-2.53-3.22-0.06-3.78c4.43-0.81,12.81,2.61,16.48,7.4V63.24l-4.32,3.17       c-4.89-2.61-11.5-3.83-17.2-2.2c-3.67,1.18-5.34,3.32-6.15,5.76c-1.3,8.12,5.25,8.83,11.4,9.49c1.85,0.26,3.68,0.47,5.24,0.82       c7.06,1.68,4.27,8.74-1.06,8.67c-4.88,0.66-12.04-3.32-15.67-8.06v13.83l4.28-3.16c5.7,3.22,15.72,4.24,21.22,0.32       c4.58-3.27,5.25-10.62,1.36-14.56C163.33,73.45,157.02,73.09,151.78,71.97"></path>
					<polygon class="st0" points="197.99,69.23 202.12,71.44 200.62,63.57 174.06,63.57 172.55,71.44 176.68,69.23 183.39,69.23        183.39,90.26 181.16,94.4 193.51,94.4 191.29,90.26 191.29,69.23      "></polygon>
					<path class="st0" d="M233.9,94.4l-3.34-4.14l-3.37-7.82c0.4-0.09,0.8-0.14,1.22-0.16c0.68-0.04,1.38,0.03,2.12,0.17       c-1.52-2.24-2.5-4.64-2.99-7.23c-0.62,0.98-1.43,1.79-2.4,2.43l-4.71-10.86l2.23-3.21h-12.76l0.92,1.89l-5.2,13.65       c-0.73-0.51-1.73-1.12-3.02-1.8l-2.13,4.85h0.4c0.58-0.03,1.22,0.1,1.99,0.34c0.46,0.2,0.88,0.42,1.21,0.68l-3.1,8.15       l-2.71,3.06h10.33l-1.66-3.06l1.92-5.15c2.56,1.17,4.32,3.35,5.48,5.97c1.26-2.86,3.12-5.2,6.15-6.23l3.69,8.48H233.9z        M214.33,83.98c-1.11-0.92-2.37-1.68-3.78-2.35l3.78-10.09l4.21,9.95C216.99,82.05,215.6,82.92,214.33,83.98"></path>
					<path class="st0" d="M235.53,63.61c4.6,0.01,10.31-0.05,14.9-0.05c15.96-0.42,19.15,14.3,8.11,19.21l10.69,11.7h-13.4       l1.25-4.03l-5.64-6.14c-1.76,0.06-4.31,0.01-5.85,0.01v6.04l2.15,4.13h-12.21l2.15-4.13V67.71L235.53,63.61z M245.59,79.3h4.84       c9.55,0,9.05-10.67,0-10.67l-4.84,0.01V79.3z"></path>
				</g>
				<g>
					<g>
						<polygon class="st0" points="156.08,17.09 149.02,17.15 141.06,24.83 146.12,24.83 146.12,50.5 143.4,55.67 158.79,55.67         156.08,50.5       "></polygon>
						<path class="st0" d="M185.36,50.5l-2.78,5.17h15.48l-2.78-5.17v-3.39h5.24l1.84-9.85l-5.18,2.83h-1.89V17.09        c-3.99,0.06-7.77,0.06-11.73,0.06l-20.58,22.3l4.67,7.66h17.74V50.5z M171.99,40.02c4.6-4.84,8.82-9.96,13.37-14.76v14.83        L171.99,40.02z"></path>
					</g>
					<g>
						<polygon class="st0" points="259.6,27.8 261.27,24.73 251.94,24.73 253.57,27.8 253.57,34.25 244.07,34.25 244.07,27.8         245.7,24.73 236.4,24.73 238.03,27.8 238.03,44.91 236.4,48.03 245.7,48.03 244.07,44.91 244.07,38.5 253.57,38.5         253.57,44.91 251.94,48.03 261.27,48.03 259.6,44.91       "></polygon>
						<polygon class="st0" points="229.43,29.01 232.56,30.67 231.43,24.73 211.33,24.73 210.19,30.67 213.32,29.01 218.39,29.01         218.39,44.91 216.7,48.03 226.04,48.03 224.36,44.91 224.36,29.01       "></polygon>
					</g>
					<g>
						<rect x="210.52" y="52.68" class="st0" width="52.66" height="2.99"></rect>
					</g>
					<g>
						<rect x="210.52" y="17.09" class="st0" width="52.66" height="2.99"></rect>
					</g>
				</g>
			</g>
		</g>
	</g>
</g>
</svg>
